<?xml version="1.0" standalone="no"?>
<!DOCTYPE svg PUBLIC "-//W3C//DTD SVG 20010904//EN"
 "http://www.w3.org/TR/2001/REC-SVG-20010904/DTD/svg10.dtd">
<svg version="1.0" xmlns="http://www.w3.org/2000/svg"
 width="2560.000000pt" height="2560.000000pt" viewBox="0 0 2560.000000 2560.000000"
 preserveAspectRatio="xMidYMid meet">
<metadata>
Created by potrace 1.14, written by Peter Selinger 2001-2017
</metadata>
<g transform="translate(0.000000,2560.000000) scale(0.100000,-0.100000)"
fill="#000000" stroke="none">
<path d="M8410 21334 c-91 -2 -487 -8 -880 -13 -393 -6 -829 -14 -967 -17
l-253 -6 0 -473 0 -473 78 5 c163 10 1467 81 1468 79 1 0 -4 -64 -11 -141 -7
-78 -18 -249 -24 -380 -7 -132 -14 -260 -17 -285 -3 -25 -9 -2547 -13 -5605
-6 -4102 -11 -5603 -20 -5725 -31 -445 -80 -611 -247 -850 -134 -191 -304
-320 -525 -398 -163 -58 -470 -112 -636 -112 l-53 0 0 -355 0 -355 2420 0
2420 0 0 470 0 470 -47 0 c-27 0 -374 -18 -772 -40 -398 -22 -725 -40 -727
-40 -3 0 -2 10 1 23 8 35 34 410 46 662 7 147 13 1125 16 2713 l5 2484 23 -6
c59 -15 860 -26 1120 -16 149 5 279 13 290 16 26 7 206 -169 347 -338 198
-236 484 -657 760 -1118 162 -271 137 -230 1066 -1715 1136 -1815 1535 -2406
1946 -2875 128 -145 391 -409 568 -568 l137 -122 1361 0 1360 0 0 355 0 355
-84 0 c-173 0 -429 37 -621 89 -382 103 -790 384 -1094 751 -274 330 -403 525
-1501 2255 -1085 1709 -1200 1887 -1423 2200 -250 349 -510 640 -745 832 -83
68 -108 93 -95 97 10 2 63 14 118 26 1260 272 2213 738 2803 1372 608 653 998
1551 1072 2471 15 189 13 665 -5 843 -79 826 -363 1456 -907 2015 -707 727
-1875 1175 -3513 1349 -377 40 -684 59 -1335 81 -279 10 -2478 20 -2910 13z
m3205 -844 c541 -34 952 -103 1355 -226 919 -281 1553 -871 1837 -1709 135
-400 195 -808 195 -1330 1 -726 -143 -1336 -427 -1822 -281 -478 -640 -814
-1166 -1092 -511 -269 -1215 -450 -2009 -516 -305 -25 -761 -36 -1043 -25
-305 12 -610 28 -655 36 l-33 5 4 2627 c4 2679 5 2781 43 3057 59 436 320 769
708 904 108 38 309 80 431 91 136 11 580 11 760 0z"/>
</g>
</svg>
